<?xml version="1.0" encoding="UTF-8" standalone="no"?>
<!DOCTYPE svg PUBLIC "-//W3C//DTD SVG 1.1//EN"
 "http://www.w3.org/Graphics/SVG/1.1/DTD/svg11.dtd">
<!-- Generated by graphviz version 2.43.0 (0)
 -->
<!-- Title: np::ndarray::internal::NDArrayShaped&lt; DType, Derived, Storage &gt; Pages: 1 -->
<svg width="925pt" height="878pt"
 viewBox="0.00 0.00 925.00 878.00" xmlns="http://www.w3.org/2000/svg" xmlns:xlink="http://www.w3.org/1999/xlink">
<g id="graph0" class="graph" transform="scale(1 1) rotate(0) translate(4 874)">
<title>np::ndarray::internal::NDArrayShaped&lt; DType, Derived, Storage &gt;</title>
<!-- Node1 -->
<g id="Node000001" class="node">
<title>Node1</title>
<g id="a_Node000001"><a xlink:title=" ">
<polygon fill="#999999" stroke="transparent" points="529,-478 391,-478 391,-257 529,-257 529,-478"/>
<text text-anchor="start" x="396" y="-465.5" font-family="Helvetica,sans-Serif" font-size="10.00">np::ndarray::internal</text>
<text text-anchor="start" x="396" y="-454.5" font-family="Helvetica,sans-Serif" font-size="10.00">::NDArrayShaped&lt; DType,</text>
<text text-anchor="start" x="411.5" y="-443.5" font-family="Helvetica,sans-Serif" font-size="10.00"> Derived, Storage &gt;</text>
<text text-anchor="start" x="403" y="-428.5" font-family="Helvetica,sans-Serif" font-size="10.00">#</text>
<text text-anchor="start" x="424" y="-428.5" font-family="Helvetica,sans-Serif" font-size="10.00">m_shape</text>
<text text-anchor="start" x="403" y="-413.5" font-family="Helvetica,sans-Serif" font-size="10.00">+</text>
<text text-anchor="start" x="424" y="-413.5" font-family="Helvetica,sans-Serif" font-size="10.00">NDArrayShaped()</text>
<text text-anchor="start" x="403" y="-398.5" font-family="Helvetica,sans-Serif" font-size="10.00">+</text>
<text text-anchor="start" x="424" y="-398.5" font-family="Helvetica,sans-Serif" font-size="10.00">NDArrayShaped()</text>
<text text-anchor="start" x="403" y="-383.5" font-family="Helvetica,sans-Serif" font-size="10.00">+</text>
<text text-anchor="start" x="424" y="-383.5" font-family="Helvetica,sans-Serif" font-size="10.00">NDArrayShaped()</text>
<text text-anchor="start" x="403" y="-368.5" font-family="Helvetica,sans-Serif" font-size="10.00">+</text>
<text text-anchor="start" x="424" y="-368.5" font-family="Helvetica,sans-Serif" font-size="10.00">NDArrayShaped()</text>
<text text-anchor="start" x="403" y="-353.5" font-family="Helvetica,sans-Serif" font-size="10.00">+</text>
<text text-anchor="start" x="424" y="-353.5" font-family="Helvetica,sans-Serif" font-size="10.00">NDArrayShaped()</text>
<text text-anchor="start" x="403" y="-338.5" font-family="Helvetica,sans-Serif" font-size="10.00">+</text>
<text text-anchor="start" x="424" y="-338.5" font-family="Helvetica,sans-Serif" font-size="10.00">NDArrayShaped()</text>
<text text-anchor="start" x="403" y="-323.5" font-family="Helvetica,sans-Serif" font-size="10.00">+</text>
<text text-anchor="start" x="424" y="-323.5" font-family="Helvetica,sans-Serif" font-size="10.00">NDArrayShaped()</text>
<text text-anchor="start" x="403" y="-308.5" font-family="Helvetica,sans-Serif" font-size="10.00">+</text>
<text text-anchor="start" x="424" y="-308.5" font-family="Helvetica,sans-Serif" font-size="10.00">operator=()</text>
<text text-anchor="start" x="403" y="-293.5" font-family="Helvetica,sans-Serif" font-size="10.00">+</text>
<text text-anchor="start" x="424" y="-293.5" font-family="Helvetica,sans-Serif" font-size="10.00">operator=()</text>
<text text-anchor="start" x="403" y="-278.5" font-family="Helvetica,sans-Serif" font-size="10.00">+</text>
<text text-anchor="start" x="424" y="-278.5" font-family="Helvetica,sans-Serif" font-size="10.00">shape()</text>
<text text-anchor="start" x="424" y="-263.5" font-family="Helvetica,sans-Serif" font-size="10.00">and 6 more...</text>
<polygon fill="#666666" stroke="#666666" points="391,-438.5 391,-438.5 529,-438.5 529,-438.5 391,-438.5"/>
<polygon fill="#666666" stroke="#666666" points="391,-423.5 391,-423.5 422,-423.5 422,-423.5 391,-423.5"/>
<polygon fill="#666666" stroke="#666666" points="422,-423.5 422,-423.5 529,-423.5 529,-423.5 422,-423.5"/>
<polygon fill="none" stroke="#666666" points="391,-257 391,-478 529,-478 529,-257 391,-257"/>
</a>
</g>
</g>
<!-- Node3 -->
<g id="Node000003" class="node">
<title>Node3</title>
<g id="a_Node000003"><a xlink:href="classnp_1_1ndarray_1_1array__static_1_1NDArrayStatic.html" target="_top" xlink:title=" ">
<polygon fill="white" stroke="transparent" points="118,-221 0,-221 0,0 118,0 118,-221"/>
<text text-anchor="start" x="5" y="-208.5" font-family="Helvetica,sans-Serif" font-size="10.00">np::ndarray::array</text>
<text text-anchor="start" x="5" y="-197.5" font-family="Helvetica,sans-Serif" font-size="10.00">_static::NDArrayStatic</text>
<text text-anchor="start" x="12" y="-186.5" font-family="Helvetica,sans-Serif" font-size="10.00">&lt; DType, m_size &gt;</text>
<text text-anchor="start" x="9" y="-171.5" font-family="Helvetica,sans-Serif" font-size="10.00">+</text>
<text text-anchor="start" x="27" y="-171.5" font-family="Helvetica,sans-Serif" font-size="10.00">kDepth</text>
<text text-anchor="start" x="9" y="-156.5" font-family="Helvetica,sans-Serif" font-size="10.00">+</text>
<text text-anchor="start" x="27" y="-156.5" font-family="Helvetica,sans-Serif" font-size="10.00">NDArrayStatic()</text>
<text text-anchor="start" x="9" y="-141.5" font-family="Helvetica,sans-Serif" font-size="10.00">+</text>
<text text-anchor="start" x="27" y="-141.5" font-family="Helvetica,sans-Serif" font-size="10.00">NDArrayStatic()</text>
<text text-anchor="start" x="9" y="-126.5" font-family="Helvetica,sans-Serif" font-size="10.00">+</text>
<text text-anchor="start" x="27" y="-126.5" font-family="Helvetica,sans-Serif" font-size="10.00">NDArrayStatic()</text>
<text text-anchor="start" x="9" y="-111.5" font-family="Helvetica,sans-Serif" font-size="10.00">+</text>
<text text-anchor="start" x="27" y="-111.5" font-family="Helvetica,sans-Serif" font-size="10.00">NDArrayStatic()</text>
<text text-anchor="start" x="9" y="-96.5" font-family="Helvetica,sans-Serif" font-size="10.00">+</text>
<text text-anchor="start" x="27" y="-96.5" font-family="Helvetica,sans-Serif" font-size="10.00">NDArrayStatic()</text>
<text text-anchor="start" x="9" y="-81.5" font-family="Helvetica,sans-Serif" font-size="10.00">+</text>
<text text-anchor="start" x="27" y="-81.5" font-family="Helvetica,sans-Serif" font-size="10.00">NDArrayStatic()</text>
<text text-anchor="start" x="9" y="-66.5" font-family="Helvetica,sans-Serif" font-size="10.00">+</text>
<text text-anchor="start" x="27" y="-66.5" font-family="Helvetica,sans-Serif" font-size="10.00">NDArrayStatic()</text>
<text text-anchor="start" x="9" y="-51.5" font-family="Helvetica,sans-Serif" font-size="10.00">+</text>
<text text-anchor="start" x="27" y="-51.5" font-family="Helvetica,sans-Serif" font-size="10.00">NDArrayStatic()</text>
<text text-anchor="start" x="9" y="-36.5" font-family="Helvetica,sans-Serif" font-size="10.00">+</text>
<text text-anchor="start" x="27" y="-36.5" font-family="Helvetica,sans-Serif" font-size="10.00">NDArrayStatic()</text>
<text text-anchor="start" x="9" y="-21.5" font-family="Helvetica,sans-Serif" font-size="10.00">+</text>
<text text-anchor="start" x="27" y="-21.5" font-family="Helvetica,sans-Serif" font-size="10.00">NDArrayStatic()</text>
<text text-anchor="start" x="27" y="-6.5" font-family="Helvetica,sans-Serif" font-size="10.00">and 41 more...</text>
<polygon fill="#bfbfbf" stroke="#bfbfbf" points="0,-181.5 0,-181.5 118,-181.5 118,-181.5 0,-181.5"/>
<polygon fill="#bfbfbf" stroke="#bfbfbf" points="0,-166.5 0,-166.5 25,-166.5 25,-166.5 0,-166.5"/>
<polygon fill="#bfbfbf" stroke="#bfbfbf" points="25,-166.5 25,-166.5 118,-166.5 118,-166.5 25,-166.5"/>
<polygon fill="none" stroke="#bfbfbf" points="0,0 0,-221 118,-221 118,0 0,0"/>
</a>
</g>
</g>
<!-- Node1&#45;&gt;Node3 -->
<g id="edge2_Node000001_Node000003" class="edge">
<title>Node1&#45;&gt;Node3</title>
<g id="a_edge2_Node000001_Node000003"><a xlink:title=" ">
<path fill="none" stroke="#63b8ff" d="M380.88,-346.59C308.35,-325.19 201.26,-285.28 127,-221 123.95,-218.36 121,-215.56 118.14,-212.62"/>
<polygon fill="none" stroke="#63b8ff" points="380.29,-350.07 390.87,-349.49 382.24,-343.35 380.29,-350.07"/>
</a>
</g>
</g>
<!-- Node4 -->
<g id="Node000004" class="node">
<title>Node4</title>
<g id="a_Node000004"><a xlink:href="classnp_1_1ndarray_1_1array__constant_1_1NDArrayConstant.html" target="_top" xlink:title=" ">
<polygon fill="white" stroke="transparent" points="285.5,-191 136.5,-191 136.5,-30 285.5,-30 285.5,-191"/>
<text text-anchor="start" x="142" y="-178.5" font-family="Helvetica,sans-Serif" font-size="10.00">np::ndarray::array</text>
<text text-anchor="start" x="142" y="-167.5" font-family="Helvetica,sans-Serif" font-size="10.00">_constant::NDArrayConstant</text>
<text text-anchor="start" x="185" y="-156.5" font-family="Helvetica,sans-Serif" font-size="10.00">&lt; DType &gt;</text>
<text text-anchor="start" x="209.5" y="-141.5" font-family="Helvetica,sans-Serif" font-size="10.00"> </text>
<text text-anchor="start" x="147.5" y="-126.5" font-family="Helvetica,sans-Serif" font-size="10.00">+</text>
<text text-anchor="start" x="167" y="-126.5" font-family="Helvetica,sans-Serif" font-size="10.00">NDArrayConstant()</text>
<text text-anchor="start" x="147.5" y="-111.5" font-family="Helvetica,sans-Serif" font-size="10.00">+</text>
<text text-anchor="start" x="167" y="-111.5" font-family="Helvetica,sans-Serif" font-size="10.00">NDArrayConstant()</text>
<text text-anchor="start" x="147.5" y="-96.5" font-family="Helvetica,sans-Serif" font-size="10.00">+</text>
<text text-anchor="start" x="167" y="-96.5" font-family="Helvetica,sans-Serif" font-size="10.00">NDArrayConstant()</text>
<text text-anchor="start" x="147.5" y="-81.5" font-family="Helvetica,sans-Serif" font-size="10.00">+</text>
<text text-anchor="start" x="167" y="-81.5" font-family="Helvetica,sans-Serif" font-size="10.00">NDArrayConstant()</text>
<text text-anchor="start" x="147.5" y="-66.5" font-family="Helvetica,sans-Serif" font-size="10.00">+</text>
<text text-anchor="start" x="167" y="-66.5" font-family="Helvetica,sans-Serif" font-size="10.00">~NDArrayConstant()</text>
<text text-anchor="start" x="147.5" y="-51.5" font-family="Helvetica,sans-Serif" font-size="10.00">+</text>
<text text-anchor="start" x="167" y="-51.5" font-family="Helvetica,sans-Serif" font-size="10.00">operator=()</text>
<text text-anchor="start" x="147.5" y="-36.5" font-family="Helvetica,sans-Serif" font-size="10.00">+</text>
<text text-anchor="start" x="167" y="-36.5" font-family="Helvetica,sans-Serif" font-size="10.00">operator=()</text>
<polygon fill="#bfbfbf" stroke="#bfbfbf" points="137,-151.5 137,-151.5 286,-151.5 286,-151.5 137,-151.5"/>
<polygon fill="#bfbfbf" stroke="#bfbfbf" points="137,-136.5 137,-136.5 286,-136.5 286,-136.5 137,-136.5"/>
<polygon fill="none" stroke="#bfbfbf" points="136.5,-30 136.5,-191 285.5,-191 285.5,-30 136.5,-30"/>
</a>
</g>
</g>
<!-- Node1&#45;&gt;Node4 -->
<g id="edge3_Node000001_Node000004" class="edge">
<title>Node1&#45;&gt;Node4</title>
<g id="a_edge3_Node000001_Node000004"><a xlink:title=" ">
<path fill="none" stroke="#63b8ff" d="M383.2,-304.84C354.06,-280.02 321.33,-250.35 294,-221 285.3,-211.66 276.61,-201.44 268.31,-191.12"/>
<polygon fill="none" stroke="#63b8ff" points="381.03,-307.58 390.92,-311.37 385.55,-302.24 381.03,-307.58"/>
</a>
</g>
</g>
<!-- Node5 -->
<g id="Node000005" class="node">
<title>Node5</title>
<g id="a_Node000005"><a xlink:href="classnp_1_1ndarray_1_1array__diagonal_1_1NDArrayDiagonal.html" target="_top" xlink:title=" ">
<polygon fill="white" stroke="transparent" points="452.5,-196.5 303.5,-196.5 303.5,-24.5 452.5,-24.5 452.5,-196.5"/>
<text text-anchor="start" x="309" y="-184.5" font-family="Helvetica,sans-Serif" font-size="10.00">np::ndarray::array</text>
<text text-anchor="start" x="309" y="-173.5" font-family="Helvetica,sans-Serif" font-size="10.00">_diagonal::NDArrayDiagonal</text>
<text text-anchor="start" x="309" y="-162.5" font-family="Helvetica,sans-Serif" font-size="10.00">&lt; DType, Derived, Storage,</text>
<text text-anchor="start" x="358.5" y="-151.5" font-family="Helvetica,sans-Serif" font-size="10.00"> Dims &gt;</text>
<text text-anchor="start" x="376.5" y="-136.5" font-family="Helvetica,sans-Serif" font-size="10.00"> </text>
<text text-anchor="start" x="314.5" y="-121.5" font-family="Helvetica,sans-Serif" font-size="10.00">+</text>
<text text-anchor="start" x="334" y="-121.5" font-family="Helvetica,sans-Serif" font-size="10.00">NDArrayDiagonal()</text>
<text text-anchor="start" x="314.5" y="-106.5" font-family="Helvetica,sans-Serif" font-size="10.00">+</text>
<text text-anchor="start" x="334" y="-106.5" font-family="Helvetica,sans-Serif" font-size="10.00">NDArrayDiagonal()</text>
<text text-anchor="start" x="314.5" y="-91.5" font-family="Helvetica,sans-Serif" font-size="10.00">+</text>
<text text-anchor="start" x="334" y="-91.5" font-family="Helvetica,sans-Serif" font-size="10.00">NDArrayDiagonal()</text>
<text text-anchor="start" x="314.5" y="-76.5" font-family="Helvetica,sans-Serif" font-size="10.00">+</text>
<text text-anchor="start" x="334" y="-76.5" font-family="Helvetica,sans-Serif" font-size="10.00">NDArrayDiagonal()</text>
<text text-anchor="start" x="314.5" y="-61.5" font-family="Helvetica,sans-Serif" font-size="10.00">+</text>
<text text-anchor="start" x="334" y="-61.5" font-family="Helvetica,sans-Serif" font-size="10.00">~NDArrayDiagonal()</text>
<text text-anchor="start" x="314.5" y="-46.5" font-family="Helvetica,sans-Serif" font-size="10.00">+</text>
<text text-anchor="start" x="334" y="-46.5" font-family="Helvetica,sans-Serif" font-size="10.00">operator=()</text>
<text text-anchor="start" x="314.5" y="-31.5" font-family="Helvetica,sans-Serif" font-size="10.00">+</text>
<text text-anchor="start" x="334" y="-31.5" font-family="Helvetica,sans-Serif" font-size="10.00">operator=()</text>
<polygon fill="#bfbfbf" stroke="#bfbfbf" points="304,-146.5 304,-146.5 453,-146.5 453,-146.5 304,-146.5"/>
<polygon fill="#bfbfbf" stroke="#bfbfbf" points="304,-131.5 304,-131.5 453,-131.5 453,-131.5 304,-131.5"/>
<polygon fill="none" stroke="#bfbfbf" points="303.5,-24.5 303.5,-196.5 452.5,-196.5 452.5,-24.5 303.5,-24.5"/>
</a>
</g>
</g>
<!-- Node1&#45;&gt;Node5 -->
<g id="edge4_Node000001_Node000005" class="edge">
<title>Node1&#45;&gt;Node5</title>
<g id="a_edge4_Node000001_Node000005"><a xlink:title=" ">
<path fill="none" stroke="#63b8ff" d="M421.55,-246.94C416.11,-230 410.6,-212.88 405.42,-196.78"/>
<polygon fill="none" stroke="#63b8ff" points="418.36,-248.43 424.75,-256.88 425.02,-246.29 418.36,-248.43"/>
</a>
</g>
</g>
<!-- Node6 -->
<g id="Node000006" class="node">
<title>Node6</title>
<g id="a_Node000006"><a xlink:href="classnp_1_1ndarray_1_1array__diagonal_1_1NDArrayIdentity.html" target="_top" xlink:title=" ">
<polygon fill="white" stroke="transparent" points="613.5,-191 470.5,-191 470.5,-30 613.5,-30 613.5,-191"/>
<text text-anchor="start" x="476" y="-178.5" font-family="Helvetica,sans-Serif" font-size="10.00">np::ndarray::array</text>
<text text-anchor="start" x="476" y="-167.5" font-family="Helvetica,sans-Serif" font-size="10.00">_diagonal::NDArrayIdentity</text>
<text text-anchor="start" x="516" y="-156.5" font-family="Helvetica,sans-Serif" font-size="10.00">&lt; DType &gt;</text>
<text text-anchor="start" x="540.5" y="-141.5" font-family="Helvetica,sans-Serif" font-size="10.00"> </text>
<text text-anchor="start" x="481.5" y="-126.5" font-family="Helvetica,sans-Serif" font-size="10.00">+</text>
<text text-anchor="start" x="501" y="-126.5" font-family="Helvetica,sans-Serif" font-size="10.00">NDArrayIdentity()</text>
<text text-anchor="start" x="481.5" y="-111.5" font-family="Helvetica,sans-Serif" font-size="10.00">+</text>
<text text-anchor="start" x="501" y="-111.5" font-family="Helvetica,sans-Serif" font-size="10.00">NDArrayIdentity()</text>
<text text-anchor="start" x="481.5" y="-96.5" font-family="Helvetica,sans-Serif" font-size="10.00">+</text>
<text text-anchor="start" x="501" y="-96.5" font-family="Helvetica,sans-Serif" font-size="10.00">NDArrayIdentity()</text>
<text text-anchor="start" x="481.5" y="-81.5" font-family="Helvetica,sans-Serif" font-size="10.00">+</text>
<text text-anchor="start" x="501" y="-81.5" font-family="Helvetica,sans-Serif" font-size="10.00">NDArrayIdentity()</text>
<text text-anchor="start" x="481.5" y="-66.5" font-family="Helvetica,sans-Serif" font-size="10.00">+</text>
<text text-anchor="start" x="501" y="-66.5" font-family="Helvetica,sans-Serif" font-size="10.00">~NDArrayIdentity()</text>
<text text-anchor="start" x="481.5" y="-51.5" font-family="Helvetica,sans-Serif" font-size="10.00">+</text>
<text text-anchor="start" x="501" y="-51.5" font-family="Helvetica,sans-Serif" font-size="10.00">operator=()</text>
<text text-anchor="start" x="481.5" y="-36.5" font-family="Helvetica,sans-Serif" font-size="10.00">+</text>
<text text-anchor="start" x="501" y="-36.5" font-family="Helvetica,sans-Serif" font-size="10.00">operator=()</text>
<polygon fill="#bfbfbf" stroke="#bfbfbf" points="471,-151.5 471,-151.5 614,-151.5 614,-151.5 471,-151.5"/>
<polygon fill="#bfbfbf" stroke="#bfbfbf" points="471,-136.5 471,-136.5 614,-136.5 614,-136.5 471,-136.5"/>
<polygon fill="none" stroke="#bfbfbf" points="470.5,-30 470.5,-191 613.5,-191 613.5,-30 470.5,-30"/>
</a>
</g>
</g>
<!-- Node1&#45;&gt;Node6 -->
<g id="edge5_Node000001_Node000006" class="edge">
<title>Node1&#45;&gt;Node6</title>
<g id="a_edge5_Node000001_Node000006"><a xlink:title=" ">
<path fill="none" stroke="#63b8ff" d="M498.35,-247.24C504.48,-228.17 510.69,-208.85 516.43,-191"/>
<polygon fill="none" stroke="#63b8ff" points="494.98,-246.29 495.25,-256.88 501.64,-248.43 494.98,-246.29"/>
</a>
</g>
</g>
<!-- Node7 -->
<g id="Node000007" class="node">
<title>Node7</title>
<g id="a_Node000007"><a xlink:href="classnp_1_1ndarray_1_1array__dynamic_1_1NDArrayDynamic.html" target="_top" xlink:title=" ">
<polygon fill="white" stroke="transparent" points="780.5,-221 631.5,-221 631.5,0 780.5,0 780.5,-221"/>
<text text-anchor="start" x="637" y="-208.5" font-family="Helvetica,sans-Serif" font-size="10.00">np::ndarray::array</text>
<text text-anchor="start" x="637" y="-197.5" font-family="Helvetica,sans-Serif" font-size="10.00">_dynamic::NDArrayDynamic</text>
<text text-anchor="start" x="680" y="-186.5" font-family="Helvetica,sans-Serif" font-size="10.00">&lt; DType &gt;</text>
<text text-anchor="start" x="704.5" y="-171.5" font-family="Helvetica,sans-Serif" font-size="10.00"> </text>
<text text-anchor="start" x="644.5" y="-156.5" font-family="Helvetica,sans-Serif" font-size="10.00">+</text>
<text text-anchor="start" x="666" y="-156.5" font-family="Helvetica,sans-Serif" font-size="10.00">NDArrayDynamic()</text>
<text text-anchor="start" x="644.5" y="-141.5" font-family="Helvetica,sans-Serif" font-size="10.00">+</text>
<text text-anchor="start" x="666" y="-141.5" font-family="Helvetica,sans-Serif" font-size="10.00">NDArrayDynamic()</text>
<text text-anchor="start" x="644.5" y="-126.5" font-family="Helvetica,sans-Serif" font-size="10.00">+</text>
<text text-anchor="start" x="666" y="-126.5" font-family="Helvetica,sans-Serif" font-size="10.00">NDArrayDynamic()</text>
<text text-anchor="start" x="644.5" y="-111.5" font-family="Helvetica,sans-Serif" font-size="10.00">+</text>
<text text-anchor="start" x="666" y="-111.5" font-family="Helvetica,sans-Serif" font-size="10.00">NDArrayDynamic()</text>
<text text-anchor="start" x="644.5" y="-96.5" font-family="Helvetica,sans-Serif" font-size="10.00">+</text>
<text text-anchor="start" x="666" y="-96.5" font-family="Helvetica,sans-Serif" font-size="10.00">NDArrayDynamic()</text>
<text text-anchor="start" x="644.5" y="-81.5" font-family="Helvetica,sans-Serif" font-size="10.00">+</text>
<text text-anchor="start" x="666" y="-81.5" font-family="Helvetica,sans-Serif" font-size="10.00">NDArrayDynamic()</text>
<text text-anchor="start" x="644.5" y="-66.5" font-family="Helvetica,sans-Serif" font-size="10.00">+</text>
<text text-anchor="start" x="666" y="-66.5" font-family="Helvetica,sans-Serif" font-size="10.00">NDArrayDynamic()</text>
<text text-anchor="start" x="644.5" y="-51.5" font-family="Helvetica,sans-Serif" font-size="10.00">+</text>
<text text-anchor="start" x="666" y="-51.5" font-family="Helvetica,sans-Serif" font-size="10.00">NDArrayDynamic()</text>
<text text-anchor="start" x="644.5" y="-36.5" font-family="Helvetica,sans-Serif" font-size="10.00">+</text>
<text text-anchor="start" x="666" y="-36.5" font-family="Helvetica,sans-Serif" font-size="10.00">NDArrayDynamic()</text>
<text text-anchor="start" x="644.5" y="-21.5" font-family="Helvetica,sans-Serif" font-size="10.00">+</text>
<text text-anchor="start" x="666" y="-21.5" font-family="Helvetica,sans-Serif" font-size="10.00">NDArrayDynamic()</text>
<text text-anchor="start" x="666" y="-6.5" font-family="Helvetica,sans-Serif" font-size="10.00">and 43 more...</text>
<polygon fill="#bfbfbf" stroke="#bfbfbf" points="632,-181.5 632,-181.5 781,-181.5 781,-181.5 632,-181.5"/>
<polygon fill="#bfbfbf" stroke="#bfbfbf" points="632,-166.5 632,-166.5 781,-166.5 781,-166.5 632,-166.5"/>
<polygon fill="none" stroke="#bfbfbf" points="631.5,0 631.5,-221 780.5,-221 780.5,0 631.5,0"/>
</a>
</g>
</g>
<!-- Node1&#45;&gt;Node7 -->
<g id="edge6_Node000001_Node000007" class="edge">
<title>Node1&#45;&gt;Node7</title>
<g id="a_edge6_Node000001_Node000007"><a xlink:title=" ">
<path fill="none" stroke="#63b8ff" d="M537.19,-303.03C565.32,-278.52 596.66,-249.54 623,-221 625.83,-217.93 628.66,-214.77 631.48,-211.55"/>
<polygon fill="none" stroke="#63b8ff" points="534.62,-300.62 529.35,-309.82 539.2,-305.92 534.62,-300.62"/>
</a>
</g>
</g>
<!-- Node8 -->
<g id="Node000008" class="node">
<title>Node8</title>
<g id="a_Node000008"><a xlink:href="classnp_1_1ndarray_1_1array__static_1_1NDArrayStatic.html" target="_top" xlink:title=" ">
<polygon fill="white" stroke="transparent" points="917,-221 799,-221 799,0 917,0 917,-221"/>
<text text-anchor="start" x="804" y="-208.5" font-family="Helvetica,sans-Serif" font-size="10.00">np::ndarray::array</text>
<text text-anchor="start" x="804" y="-197.5" font-family="Helvetica,sans-Serif" font-size="10.00">_static::NDArrayStatic</text>
<text text-anchor="start" x="815.5" y="-186.5" font-family="Helvetica,sans-Serif" font-size="10.00">&lt; DType, SizeT &gt;</text>
<text text-anchor="start" x="808" y="-171.5" font-family="Helvetica,sans-Serif" font-size="10.00">+</text>
<text text-anchor="start" x="826" y="-171.5" font-family="Helvetica,sans-Serif" font-size="10.00">kDepth</text>
<text text-anchor="start" x="808" y="-156.5" font-family="Helvetica,sans-Serif" font-size="10.00">+</text>
<text text-anchor="start" x="826" y="-156.5" font-family="Helvetica,sans-Serif" font-size="10.00">NDArrayStatic()</text>
<text text-anchor="start" x="808" y="-141.5" font-family="Helvetica,sans-Serif" font-size="10.00">+</text>
<text text-anchor="start" x="826" y="-141.5" font-family="Helvetica,sans-Serif" font-size="10.00">NDArrayStatic()</text>
<text text-anchor="start" x="808" y="-126.5" font-family="Helvetica,sans-Serif" font-size="10.00">+</text>
<text text-anchor="start" x="826" y="-126.5" font-family="Helvetica,sans-Serif" font-size="10.00">NDArrayStatic()</text>
<text text-anchor="start" x="808" y="-111.5" font-family="Helvetica,sans-Serif" font-size="10.00">+</text>
<text text-anchor="start" x="826" y="-111.5" font-family="Helvetica,sans-Serif" font-size="10.00">NDArrayStatic()</text>
<text text-anchor="start" x="808" y="-96.5" font-family="Helvetica,sans-Serif" font-size="10.00">+</text>
<text text-anchor="start" x="826" y="-96.5" font-family="Helvetica,sans-Serif" font-size="10.00">NDArrayStatic()</text>
<text text-anchor="start" x="808" y="-81.5" font-family="Helvetica,sans-Serif" font-size="10.00">+</text>
<text text-anchor="start" x="826" y="-81.5" font-family="Helvetica,sans-Serif" font-size="10.00">NDArrayStatic()</text>
<text text-anchor="start" x="808" y="-66.5" font-family="Helvetica,sans-Serif" font-size="10.00">+</text>
<text text-anchor="start" x="826" y="-66.5" font-family="Helvetica,sans-Serif" font-size="10.00">NDArrayStatic()</text>
<text text-anchor="start" x="808" y="-51.5" font-family="Helvetica,sans-Serif" font-size="10.00">+</text>
<text text-anchor="start" x="826" y="-51.5" font-family="Helvetica,sans-Serif" font-size="10.00">NDArrayStatic()</text>
<text text-anchor="start" x="808" y="-36.5" font-family="Helvetica,sans-Serif" font-size="10.00">+</text>
<text text-anchor="start" x="826" y="-36.5" font-family="Helvetica,sans-Serif" font-size="10.00">NDArrayStatic()</text>
<text text-anchor="start" x="808" y="-21.5" font-family="Helvetica,sans-Serif" font-size="10.00">+</text>
<text text-anchor="start" x="826" y="-21.5" font-family="Helvetica,sans-Serif" font-size="10.00">NDArrayStatic()</text>
<text text-anchor="start" x="826" y="-6.5" font-family="Helvetica,sans-Serif" font-size="10.00">and 41 more...</text>
<polygon fill="#bfbfbf" stroke="#bfbfbf" points="799,-181.5 799,-181.5 917,-181.5 917,-181.5 799,-181.5"/>
<polygon fill="#bfbfbf" stroke="#bfbfbf" points="799,-166.5 799,-166.5 824,-166.5 824,-166.5 799,-166.5"/>
<polygon fill="#bfbfbf" stroke="#bfbfbf" points="824,-166.5 824,-166.5 917,-166.5 917,-166.5 824,-166.5"/>
<polygon fill="none" stroke="#bfbfbf" points="799,0 799,-221 917,-221 917,0 799,0"/>
</a>
</g>
</g>
<!-- Node1&#45;&gt;Node8 -->
<g id="edge7_Node000001_Node000008" class="edge">
<title>Node1&#45;&gt;Node8</title>
<g id="a_edge7_Node000001_Node000008"><a xlink:title=" ">
<path fill="none" stroke="#63b8ff" d="M539.07,-346.23C610.94,-324.66 716.63,-284.72 790,-221 793.04,-218.36 795.99,-215.55 798.85,-212.6"/>
<polygon fill="none" stroke="#63b8ff" points="537.77,-342.97 529.17,-349.15 539.75,-349.68 537.77,-342.97"/>
</a>
</g>
</g>
<!-- Node2 -->
<g id="Node000002" class="node">
<title>Node2</title>
<g id="a_Node000002"><a xlink:href="classnp_1_1ndarray_1_1internal_1_1NDArrayBase.html" target="_top" xlink:title=" ">
<polygon fill="white" stroke="transparent" points="533,-870 387,-870 387,-514 533,-514 533,-870"/>
<text text-anchor="start" x="402" y="-858" font-family="Helvetica,sans-Serif" font-size="10.00">np::ndarray::internal</text>
<text text-anchor="start" x="402" y="-847" font-family="Helvetica,sans-Serif" font-size="10.00">::NDArrayBase&lt; DType,</text>
<text text-anchor="start" x="411.5" y="-836" font-family="Helvetica,sans-Serif" font-size="10.00"> Derived, Storage &gt;</text>
<text text-anchor="start" x="458" y="-821" font-family="Helvetica,sans-Serif" font-size="10.00"> </text>
<text text-anchor="start" x="391" y="-806" font-family="Helvetica,sans-Serif" font-size="10.00">+</text>
<text text-anchor="start" x="404" y="-806" font-family="Helvetica,sans-Serif" font-size="10.00">NDArrayBase()</text>
<text text-anchor="start" x="391" y="-791" font-family="Helvetica,sans-Serif" font-size="10.00">+</text>
<text text-anchor="start" x="404" y="-791" font-family="Helvetica,sans-Serif" font-size="10.00">NDArrayBase()</text>
<text text-anchor="start" x="391" y="-776" font-family="Helvetica,sans-Serif" font-size="10.00">+</text>
<text text-anchor="start" x="404" y="-776" font-family="Helvetica,sans-Serif" font-size="10.00">NDArrayBase()</text>
<text text-anchor="start" x="391" y="-761" font-family="Helvetica,sans-Serif" font-size="10.00">+</text>
<text text-anchor="start" x="404" y="-761" font-family="Helvetica,sans-Serif" font-size="10.00">~NDArrayBase()</text>
<text text-anchor="start" x="391" y="-746" font-family="Helvetica,sans-Serif" font-size="10.00">+</text>
<text text-anchor="start" x="404" y="-746" font-family="Helvetica,sans-Serif" font-size="10.00">derived()</text>
<text text-anchor="start" x="391" y="-731" font-family="Helvetica,sans-Serif" font-size="10.00">+</text>
<text text-anchor="start" x="404" y="-731" font-family="Helvetica,sans-Serif" font-size="10.00">derived()</text>
<text text-anchor="start" x="391" y="-716" font-family="Helvetica,sans-Serif" font-size="10.00">+</text>
<text text-anchor="start" x="404" y="-716" font-family="Helvetica,sans-Serif" font-size="10.00">operator=()</text>
<text text-anchor="start" x="391" y="-701" font-family="Helvetica,sans-Serif" font-size="10.00">+</text>
<text text-anchor="start" x="404" y="-701" font-family="Helvetica,sans-Serif" font-size="10.00">operator=()</text>
<text text-anchor="start" x="391" y="-686" font-family="Helvetica,sans-Serif" font-size="10.00">+</text>
<text text-anchor="start" x="404" y="-686" font-family="Helvetica,sans-Serif" font-size="10.00">save()</text>
<text text-anchor="start" x="391" y="-671" font-family="Helvetica,sans-Serif" font-size="10.00">+</text>
<text text-anchor="start" x="404" y="-671" font-family="Helvetica,sans-Serif" font-size="10.00">savez()</text>
<text text-anchor="start" x="404" y="-656" font-family="Helvetica,sans-Serif" font-size="10.00">and 98 more...</text>
<text text-anchor="start" x="391" y="-641" font-family="Helvetica,sans-Serif" font-size="10.00">#</text>
<text text-anchor="start" x="404" y="-641" font-family="Helvetica,sans-Serif" font-size="10.00">getMaxElementSize()</text>
<text text-anchor="start" x="391" y="-626" font-family="Helvetica,sans-Serif" font-size="10.00">#</text>
<text text-anchor="start" x="404" y="-626" font-family="Helvetica,sans-Serif" font-size="10.00">dumpToStreamAsBinary()</text>
<text text-anchor="start" x="391" y="-611" font-family="Helvetica,sans-Serif" font-size="10.00">#</text>
<text text-anchor="start" x="404" y="-611" font-family="Helvetica,sans-Serif" font-size="10.00">runHandlers()</text>
<text text-anchor="start" x="391" y="-596" font-family="Helvetica,sans-Serif" font-size="10.00">#</text>
<text text-anchor="start" x="404" y="-596" font-family="Helvetica,sans-Serif" font-size="10.00">none()</text>
<text text-anchor="start" x="391" y="-581" font-family="Helvetica,sans-Serif" font-size="10.00">#</text>
<text text-anchor="start" x="404" y="-581" font-family="Helvetica,sans-Serif" font-size="10.00">subsetting()</text>
<text text-anchor="start" x="391" y="-566" font-family="Helvetica,sans-Serif" font-size="10.00">#</text>
<text text-anchor="start" x="404" y="-566" font-family="Helvetica,sans-Serif" font-size="10.00">slicing()</text>
<text text-anchor="start" x="391" y="-551" font-family="Helvetica,sans-Serif" font-size="10.00">#</text>
<text text-anchor="start" x="404" y="-551" font-family="Helvetica,sans-Serif" font-size="10.00">booleanIndexing()</text>
<text text-anchor="start" x="391" y="-536" font-family="Helvetica,sans-Serif" font-size="10.00">#</text>
<text text-anchor="start" x="404" y="-536" font-family="Helvetica,sans-Serif" font-size="10.00">save()</text>
<text text-anchor="start" x="391" y="-521" font-family="Helvetica,sans-Serif" font-size="10.00">#</text>
<text text-anchor="start" x="404" y="-521" font-family="Helvetica,sans-Serif" font-size="10.00">load()</text>
<polygon fill="#bfbfbf" stroke="#bfbfbf" points="387,-831 387,-831 533,-831 533,-831 387,-831"/>
<polygon fill="#bfbfbf" stroke="#bfbfbf" points="387,-816 387,-816 533,-816 533,-816 387,-816"/>
<polygon fill="none" stroke="#bfbfbf" points="387,-514 387,-870 533,-870 533,-514 387,-514"/>
</a>
</g>
</g>
<!-- Node2&#45;&gt;Node1 -->
<g id="edge1_Node000001_Node000002" class="edge">
<title>Node2&#45;&gt;Node1</title>
<g id="a_edge1_Node000001_Node000002"><a xlink:title=" ">
<path fill="none" stroke="#63b8ff" d="M460,-503.62C460,-495.06 460,-486.59 460,-478.33"/>
<polygon fill="none" stroke="#63b8ff" points="456.5,-503.71 460,-513.71 463.5,-503.71 456.5,-503.71"/>
</a>
</g>
</g>
</g>
</svg>
