<?xml version="1.0" encoding="UTF-8" standalone="no"?>
<!DOCTYPE svg PUBLIC "-//W3C//DTD SVG 1.1//EN"
 "http://www.w3.org/Graphics/SVG/1.1/DTD/svg11.dtd">
<!-- Generated by graphviz version 2.43.0 (0)
 -->
<!-- Title: np::ndarray::array_dynamic::NDArrayDynamic&lt; DType &gt; Pages: 1 -->
<!--zoomable 879 -->

<svg id="main" version="1.1" xmlns="http://www.w3.org/2000/svg" xmlns:xlink="http://www.w3.org/1999/xlink" xml:space="preserve" onload="init(evt)">
<style type="text/css"><![CDATA[
.node, .edge {opacity: 0.7;}
.node.selected, .edge.selected {opacity: 1;}
.edge:hover path { stroke: red; }
.edge:hover polygon { stroke: red; fill: red; }
]]></style>

<defs>
  <circle id="rim" cx="0" cy="0" r="7"/>
  <circle id="rim2" cx="0" cy="0" r="3.5"/>
  <g id="zoomPlus">
    <use xlink:href="#rim" fill="#404040"><set attributeName="fill" to="#808080" begin="zoomplus.mouseover" end="zoomplus.mouseout"/></use>
    <path d="M-4,0h8M0,-4v8" fill="none" stroke="white" stroke-width="1.5" pointer-events="none"/>
  </g>
  <g id="zoomMin">
    <use xlink:href="#rim" fill="#404040"><set attributeName="fill" to="#808080" begin="zoomminus.mouseover" end="zoomminus.mouseout"/></use>
    <path d="M-4,0h8" fill="none" stroke="white" stroke-width="1.5" pointer-events="none"/>
  </g>
  <g id="arrowUp" transform="translate(30 24)">
    <use xlink:href="#rim"/>
    <path pointer-events="none" fill="none" stroke="white" stroke-width="1.5" d="M0,-3.0v7 M-2.5,-0.5L0,-3.0L2.5,-0.5"/>
  </g>
  <g id="arrowRight" transform="rotate(90) translate(36 -43)">
    <use xlink:href="#rim"/>
    <path pointer-events="none" fill="none" stroke="white" stroke-width="1.5" d="M0,-3.0v7 M-2.5,-0.5L0,-3.0L2.5,-0.5"/>
  </g>
  <g id="arrowDown" transform="rotate(180) translate(-30 -48)">
    <use xlink:href="#rim"/>
    <path pointer-events="none" fill="none" stroke="white" stroke-width="1.5" d="M0,-3.0v7 M-2.5,-0.5L0,-3.0L2.5,-0.5"/>
  </g>
  <g id="arrowLeft" transform="rotate(270) translate(-36 17)">
    <use xlink:href="#rim"/>
    <path pointer-events="none" fill="none" stroke="white" stroke-width="1.5" d="M0,-3.0v7 M-2.5,-0.5L0,-3.0L2.5,-0.5"/>
  </g>
  <g id="resetDef">
    <use xlink:href="#rim2" fill="#404040"><set attributeName="fill" to="#808080" begin="reset.mouseover" end="reset.mouseout"/></use>
  </g>
</defs>
<script type="application/ecmascript">
var viewWidth = 264;
var viewHeight = 879;
var sectionId = 'dynsection-1';
</script>
<script type="application/ecmascript" xlink:href="svg.min.js"/>
<svg id="graph" class="graph">
<g id="viewport">
<title>np::ndarray::array_dynamic::NDArrayDynamic&lt; DType &gt;</title>
<!-- Node1 -->
<g id="Node000001" class="node">
<title>Node1</title>
<g id="a_Node000001"><a xlink:title=" ">
<polygon fill="#999999" stroke="transparent" points="215.5,-221 66.5,-221 66.5,0 215.5,0 215.5,-221"/>
<text text-anchor="start" x="72" y="-208.5" font-family="Helvetica,sans-Serif" font-size="10.00">np::ndarray::array</text>
<text text-anchor="start" x="72" y="-197.5" font-family="Helvetica,sans-Serif" font-size="10.00">_dynamic::NDArrayDynamic</text>
<text text-anchor="start" x="115" y="-186.5" font-family="Helvetica,sans-Serif" font-size="10.00">&lt; DType &gt;</text>
<text text-anchor="start" x="139.5" y="-171.5" font-family="Helvetica,sans-Serif" font-size="10.00"> </text>
<text text-anchor="start" x="79.5" y="-156.5" font-family="Helvetica,sans-Serif" font-size="10.00">+</text>
<text text-anchor="start" x="101" y="-156.5" font-family="Helvetica,sans-Serif" font-size="10.00">NDArrayDynamic()</text>
<text text-anchor="start" x="79.5" y="-141.5" font-family="Helvetica,sans-Serif" font-size="10.00">+</text>
<text text-anchor="start" x="101" y="-141.5" font-family="Helvetica,sans-Serif" font-size="10.00">NDArrayDynamic()</text>
<text text-anchor="start" x="79.5" y="-126.5" font-family="Helvetica,sans-Serif" font-size="10.00">+</text>
<text text-anchor="start" x="101" y="-126.5" font-family="Helvetica,sans-Serif" font-size="10.00">NDArrayDynamic()</text>
<text text-anchor="start" x="79.5" y="-111.5" font-family="Helvetica,sans-Serif" font-size="10.00">+</text>
<text text-anchor="start" x="101" y="-111.5" font-family="Helvetica,sans-Serif" font-size="10.00">NDArrayDynamic()</text>
<text text-anchor="start" x="79.5" y="-96.5" font-family="Helvetica,sans-Serif" font-size="10.00">+</text>
<text text-anchor="start" x="101" y="-96.5" font-family="Helvetica,sans-Serif" font-size="10.00">NDArrayDynamic()</text>
<text text-anchor="start" x="79.5" y="-81.5" font-family="Helvetica,sans-Serif" font-size="10.00">+</text>
<text text-anchor="start" x="101" y="-81.5" font-family="Helvetica,sans-Serif" font-size="10.00">NDArrayDynamic()</text>
<text text-anchor="start" x="79.5" y="-66.5" font-family="Helvetica,sans-Serif" font-size="10.00">+</text>
<text text-anchor="start" x="101" y="-66.5" font-family="Helvetica,sans-Serif" font-size="10.00">NDArrayDynamic()</text>
<text text-anchor="start" x="79.5" y="-51.5" font-family="Helvetica,sans-Serif" font-size="10.00">+</text>
<text text-anchor="start" x="101" y="-51.5" font-family="Helvetica,sans-Serif" font-size="10.00">NDArrayDynamic()</text>
<text text-anchor="start" x="79.5" y="-36.5" font-family="Helvetica,sans-Serif" font-size="10.00">+</text>
<text text-anchor="start" x="101" y="-36.5" font-family="Helvetica,sans-Serif" font-size="10.00">NDArrayDynamic()</text>
<text text-anchor="start" x="79.5" y="-21.5" font-family="Helvetica,sans-Serif" font-size="10.00">+</text>
<text text-anchor="start" x="101" y="-21.5" font-family="Helvetica,sans-Serif" font-size="10.00">NDArrayDynamic()</text>
<text text-anchor="start" x="101" y="-6.5" font-family="Helvetica,sans-Serif" font-size="10.00">and 43 more...</text>
<polygon fill="#666666" stroke="#666666" points="67,-181.5 67,-181.5 216,-181.5 216,-181.5 67,-181.5"/>
<polygon fill="#666666" stroke="#666666" points="67,-166.5 67,-166.5 216,-166.5 216,-166.5 67,-166.5"/>
<polygon fill="none" stroke="#666666" points="66.5,0 66.5,-221 215.5,-221 215.5,0 66.5,0"/>
</a>
</g>
</g>
<!-- Node2 -->
<g id="Node000002" class="node">
<title>Node2</title>
<g id="a_Node000002"><a xlink:href="classnp_1_1ndarray_1_1internal_1_1NDArrayShaped.html" target="_top" xlink:title=" ">
<polygon fill="white" stroke="transparent" points="200.5,-468 81.5,-468 81.5,-258 200.5,-258 200.5,-468"/>
<text text-anchor="start" x="87" y="-456" font-family="Helvetica,sans-Serif" font-size="10.00">NDArrayDynamicBase</text>
<text text-anchor="start" x="115" y="-445" font-family="Helvetica,sans-Serif" font-size="10.00">&lt; DType &gt;</text>
<text text-anchor="start" x="139.5" y="-430" font-family="Helvetica,sans-Serif" font-size="10.00"> </text>
<text text-anchor="start" x="89" y="-415" font-family="Helvetica,sans-Serif" font-size="10.00">+</text>
<text text-anchor="start" x="105" y="-415" font-family="Helvetica,sans-Serif" font-size="10.00">NDArrayShaped()</text>
<text text-anchor="start" x="89" y="-400" font-family="Helvetica,sans-Serif" font-size="10.00">+</text>
<text text-anchor="start" x="105" y="-400" font-family="Helvetica,sans-Serif" font-size="10.00">NDArrayShaped()</text>
<text text-anchor="start" x="89" y="-385" font-family="Helvetica,sans-Serif" font-size="10.00">+</text>
<text text-anchor="start" x="105" y="-385" font-family="Helvetica,sans-Serif" font-size="10.00">NDArrayShaped()</text>
<text text-anchor="start" x="89" y="-370" font-family="Helvetica,sans-Serif" font-size="10.00">+</text>
<text text-anchor="start" x="105" y="-370" font-family="Helvetica,sans-Serif" font-size="10.00">NDArrayShaped()</text>
<text text-anchor="start" x="89" y="-355" font-family="Helvetica,sans-Serif" font-size="10.00">+</text>
<text text-anchor="start" x="105" y="-355" font-family="Helvetica,sans-Serif" font-size="10.00">NDArrayShaped()</text>
<text text-anchor="start" x="89" y="-340" font-family="Helvetica,sans-Serif" font-size="10.00">+</text>
<text text-anchor="start" x="105" y="-340" font-family="Helvetica,sans-Serif" font-size="10.00">NDArrayShaped()</text>
<text text-anchor="start" x="89" y="-325" font-family="Helvetica,sans-Serif" font-size="10.00">+</text>
<text text-anchor="start" x="105" y="-325" font-family="Helvetica,sans-Serif" font-size="10.00">NDArrayShaped()</text>
<text text-anchor="start" x="89" y="-310" font-family="Helvetica,sans-Serif" font-size="10.00">+</text>
<text text-anchor="start" x="105" y="-310" font-family="Helvetica,sans-Serif" font-size="10.00">operator=()</text>
<text text-anchor="start" x="89" y="-295" font-family="Helvetica,sans-Serif" font-size="10.00">+</text>
<text text-anchor="start" x="105" y="-295" font-family="Helvetica,sans-Serif" font-size="10.00">operator=()</text>
<text text-anchor="start" x="89" y="-280" font-family="Helvetica,sans-Serif" font-size="10.00">+</text>
<text text-anchor="start" x="105" y="-280" font-family="Helvetica,sans-Serif" font-size="10.00">shape()</text>
<text text-anchor="start" x="105" y="-265" font-family="Helvetica,sans-Serif" font-size="10.00">and 6 more...</text>
<polygon fill="#bfbfbf" stroke="#bfbfbf" points="82,-440 82,-440 201,-440 201,-440 82,-440"/>
<polygon fill="#bfbfbf" stroke="#bfbfbf" points="82,-425 82,-425 201,-425 201,-425 82,-425"/>
<polygon fill="none" stroke="#bfbfbf" points="81.5,-258 81.5,-468 200.5,-468 200.5,-258 81.5,-258"/>
</a>
</g>
</g>
<!-- Node2&#45;&gt;Node1 -->
<g id="edge1_Node000001_Node000002" class="edge">
<title>Node2&#45;&gt;Node1</title>
<g id="a_edge1_Node000001_Node000002"><a xlink:title=" ">
<path fill="none" stroke="#63b8ff" d="M141,-247.68C141,-238.9 141,-230.05 141,-221.3"/>
<polygon fill="none" stroke="#63b8ff" points="137.5,-247.94 141,-257.94 144.5,-247.94 137.5,-247.94"/>
</a>
</g>
</g>
<!-- Node3 -->
<g id="Node000003" class="node">
<title>Node3</title>
<g id="a_Node000003"><a xlink:href="classnp_1_1ndarray_1_1internal_1_1NDArrayBase.html" target="_top" xlink:title=" ">
<polygon fill="white" stroke="transparent" points="146,-871 0,-871 0,-515 146,-515 146,-871"/>
<text text-anchor="start" x="15" y="-859" font-family="Helvetica,sans-Serif" font-size="10.00">np::ndarray::internal</text>
<text text-anchor="start" x="15" y="-848" font-family="Helvetica,sans-Serif" font-size="10.00">::NDArrayBase&lt; DType,</text>
<text text-anchor="start" x="24.5" y="-837" font-family="Helvetica,sans-Serif" font-size="10.00"> Derived, Storage &gt;</text>
<text text-anchor="start" x="71" y="-822" font-family="Helvetica,sans-Serif" font-size="10.00"> </text>
<text text-anchor="start" x="4" y="-807" font-family="Helvetica,sans-Serif" font-size="10.00">+</text>
<text text-anchor="start" x="17" y="-807" font-family="Helvetica,sans-Serif" font-size="10.00">NDArrayBase()</text>
<text text-anchor="start" x="4" y="-792" font-family="Helvetica,sans-Serif" font-size="10.00">+</text>
<text text-anchor="start" x="17" y="-792" font-family="Helvetica,sans-Serif" font-size="10.00">NDArrayBase()</text>
<text text-anchor="start" x="4" y="-777" font-family="Helvetica,sans-Serif" font-size="10.00">+</text>
<text text-anchor="start" x="17" y="-777" font-family="Helvetica,sans-Serif" font-size="10.00">NDArrayBase()</text>
<text text-anchor="start" x="4" y="-762" font-family="Helvetica,sans-Serif" font-size="10.00">+</text>
<text text-anchor="start" x="17" y="-762" font-family="Helvetica,sans-Serif" font-size="10.00">~NDArrayBase()</text>
<text text-anchor="start" x="4" y="-747" font-family="Helvetica,sans-Serif" font-size="10.00">+</text>
<text text-anchor="start" x="17" y="-747" font-family="Helvetica,sans-Serif" font-size="10.00">derived()</text>
<text text-anchor="start" x="4" y="-732" font-family="Helvetica,sans-Serif" font-size="10.00">+</text>
<text text-anchor="start" x="17" y="-732" font-family="Helvetica,sans-Serif" font-size="10.00">derived()</text>
<text text-anchor="start" x="4" y="-717" font-family="Helvetica,sans-Serif" font-size="10.00">+</text>
<text text-anchor="start" x="17" y="-717" font-family="Helvetica,sans-Serif" font-size="10.00">operator=()</text>
<text text-anchor="start" x="4" y="-702" font-family="Helvetica,sans-Serif" font-size="10.00">+</text>
<text text-anchor="start" x="17" y="-702" font-family="Helvetica,sans-Serif" font-size="10.00">operator=()</text>
<text text-anchor="start" x="4" y="-687" font-family="Helvetica,sans-Serif" font-size="10.00">+</text>
<text text-anchor="start" x="17" y="-687" font-family="Helvetica,sans-Serif" font-size="10.00">save()</text>
<text text-anchor="start" x="4" y="-672" font-family="Helvetica,sans-Serif" font-size="10.00">+</text>
<text text-anchor="start" x="17" y="-672" font-family="Helvetica,sans-Serif" font-size="10.00">savez()</text>
<text text-anchor="start" x="17" y="-657" font-family="Helvetica,sans-Serif" font-size="10.00">and 98 more...</text>
<text text-anchor="start" x="4" y="-642" font-family="Helvetica,sans-Serif" font-size="10.00">#</text>
<text text-anchor="start" x="17" y="-642" font-family="Helvetica,sans-Serif" font-size="10.00">getMaxElementSize()</text>
<text text-anchor="start" x="4" y="-627" font-family="Helvetica,sans-Serif" font-size="10.00">#</text>
<text text-anchor="start" x="17" y="-627" font-family="Helvetica,sans-Serif" font-size="10.00">dumpToStreamAsBinary()</text>
<text text-anchor="start" x="4" y="-612" font-family="Helvetica,sans-Serif" font-size="10.00">#</text>
<text text-anchor="start" x="17" y="-612" font-family="Helvetica,sans-Serif" font-size="10.00">runHandlers()</text>
<text text-anchor="start" x="4" y="-597" font-family="Helvetica,sans-Serif" font-size="10.00">#</text>
<text text-anchor="start" x="17" y="-597" font-family="Helvetica,sans-Serif" font-size="10.00">none()</text>
<text text-anchor="start" x="4" y="-582" font-family="Helvetica,sans-Serif" font-size="10.00">#</text>
<text text-anchor="start" x="17" y="-582" font-family="Helvetica,sans-Serif" font-size="10.00">subsetting()</text>
<text text-anchor="start" x="4" y="-567" font-family="Helvetica,sans-Serif" font-size="10.00">#</text>
<text text-anchor="start" x="17" y="-567" font-family="Helvetica,sans-Serif" font-size="10.00">slicing()</text>
<text text-anchor="start" x="4" y="-552" font-family="Helvetica,sans-Serif" font-size="10.00">#</text>
<text text-anchor="start" x="17" y="-552" font-family="Helvetica,sans-Serif" font-size="10.00">booleanIndexing()</text>
<text text-anchor="start" x="4" y="-537" font-family="Helvetica,sans-Serif" font-size="10.00">#</text>
<text text-anchor="start" x="17" y="-537" font-family="Helvetica,sans-Serif" font-size="10.00">save()</text>
<text text-anchor="start" x="4" y="-522" font-family="Helvetica,sans-Serif" font-size="10.00">#</text>
<text text-anchor="start" x="17" y="-522" font-family="Helvetica,sans-Serif" font-size="10.00">load()</text>
<polygon fill="#bfbfbf" stroke="#bfbfbf" points="0,-832 0,-832 146,-832 146,-832 0,-832"/>
<polygon fill="#bfbfbf" stroke="#bfbfbf" points="0,-817 0,-817 146,-817 146,-817 0,-817"/>
<polygon fill="none" stroke="#bfbfbf" points="0,-515 0,-871 146,-871 146,-515 0,-515"/>
</a>
</g>
</g>
<!-- Node3&#45;&gt;Node2 -->
<g id="edge2_Node000002_Node000003" class="edge">
<title>Node3&#45;&gt;Node2</title>
<g id="a_edge2_Node000002_Node000003"><a xlink:title=" ">
<path fill="none" stroke="#63b8ff" d="M111.86,-504.56C114.44,-492.13 116.98,-479.88 119.42,-468.12"/>
<polygon fill="none" stroke="#63b8ff" points="108.39,-504.06 109.79,-514.56 115.24,-505.48 108.39,-504.06"/>
</a>
</g>
</g>
<!-- Node4 -->
<g id="Node000004" class="node">
<title>Node4</title>
<g id="a_Node000004"><a xlink:href="classnp_1_1Shape.html" target="_top" xlink:title="Shape of an array.">
<polygon fill="white" stroke="transparent" points="256,-792.5 164,-792.5 164,-593.5 256,-593.5 256,-792.5"/>
<text text-anchor="start" x="185.5" y="-780" font-family="Helvetica,sans-Serif" font-size="10.00">np::Shape</text>
<text text-anchor="start" x="208" y="-765" font-family="Helvetica,sans-Serif" font-size="10.00"> </text>
<text text-anchor="start" x="168" y="-750" font-family="Helvetica,sans-Serif" font-size="10.00">+</text>
<text text-anchor="start" x="181" y="-750" font-family="Helvetica,sans-Serif" font-size="10.00">Shape()</text>
<text text-anchor="start" x="168" y="-735" font-family="Helvetica,sans-Serif" font-size="10.00">+</text>
<text text-anchor="start" x="181" y="-735" font-family="Helvetica,sans-Serif" font-size="10.00">Shape()</text>
<text text-anchor="start" x="168" y="-720" font-family="Helvetica,sans-Serif" font-size="10.00">+</text>
<text text-anchor="start" x="181" y="-720" font-family="Helvetica,sans-Serif" font-size="10.00">Shape()</text>
<text text-anchor="start" x="168" y="-705" font-family="Helvetica,sans-Serif" font-size="10.00">+</text>
<text text-anchor="start" x="181" y="-705" font-family="Helvetica,sans-Serif" font-size="10.00">Shape()</text>
<text text-anchor="start" x="168" y="-690" font-family="Helvetica,sans-Serif" font-size="10.00">+</text>
<text text-anchor="start" x="181" y="-690" font-family="Helvetica,sans-Serif" font-size="10.00">Shape()</text>
<text text-anchor="start" x="168" y="-675" font-family="Helvetica,sans-Serif" font-size="10.00">+</text>
<text text-anchor="start" x="181" y="-675" font-family="Helvetica,sans-Serif" font-size="10.00">Shape()</text>
<text text-anchor="start" x="168" y="-660" font-family="Helvetica,sans-Serif" font-size="10.00">+</text>
<text text-anchor="start" x="181" y="-660" font-family="Helvetica,sans-Serif" font-size="10.00">operator=()</text>
<text text-anchor="start" x="168" y="-645" font-family="Helvetica,sans-Serif" font-size="10.00">+</text>
<text text-anchor="start" x="181" y="-645" font-family="Helvetica,sans-Serif" font-size="10.00">operator=()</text>
<text text-anchor="start" x="168" y="-630" font-family="Helvetica,sans-Serif" font-size="10.00">+</text>
<text text-anchor="start" x="181" y="-630" font-family="Helvetica,sans-Serif" font-size="10.00">operator=()</text>
<text text-anchor="start" x="168" y="-615" font-family="Helvetica,sans-Serif" font-size="10.00">+</text>
<text text-anchor="start" x="181" y="-615" font-family="Helvetica,sans-Serif" font-size="10.00">Shape()</text>
<text text-anchor="start" x="181" y="-600" font-family="Helvetica,sans-Serif" font-size="10.00">and 20 more...</text>
<polygon fill="#666666" stroke="#666666" points="164,-775 164,-775 256,-775 256,-775 164,-775"/>
<polygon fill="#666666" stroke="#666666" points="164,-760 164,-760 256,-760 256,-760 164,-760"/>
<polygon fill="none" stroke="#666666" points="164,-593.5 164,-792.5 256,-792.5 256,-593.5 164,-593.5"/>
</a>
</g>
</g>
<!-- Node4&#45;&gt;Node2 -->
<g id="edge3_Node000002_Node000004" class="edge">
<title>Node4&#45;&gt;Node2</title>
<g id="a_edge3_Node000002_Node000004"><a xlink:title=" ">
<path fill="none" stroke="#63b8ff" d="M189.2,-593.14C181.7,-557.49 173.17,-516.92 165.39,-479.93"/>
<polygon fill="none" stroke="#63b8ff" points="165.36,-479.81 160.21,-474.76 162.89,-468.06 168.04,-473.11 165.36,-479.81"/>
</a>
</g>
<text text-anchor="middle" x="196" y="-489" font-family="Helvetica,sans-Serif" font-size="10.00" fill="grey"> #m_shape</text>
</g>
</g>
</svg>

<g id="navigator" transform="translate(0 0)" fill="#404254">
  <rect fill="#f2f5e9" fill-opacity="0.5" stroke="#606060" stroke-width=".5" x="0" y="0" width="60" height="60"/>
  <use id="zoomplus" xlink:href="#zoomPlus" x="17" y="9" onmousedown="handleZoom(evt,'in')"/>
  <use id="zoomminus" xlink:href="#zoomMin" x="42" y="9" onmousedown="handleZoom(evt,'out')"/>
  <use id="reset" xlink:href="#resetDef" x="30" y="36" onmousedown="handleReset()"/>
   <use id="arrowup" xlink:href="#arrowUp" x="0" y="0" onmousedown="handlePan(0,-1)"/>
  <use id="arrowright" xlink:href="#arrowRight" x="0" y="0" onmousedown="handlePan(1,0)"/>
  <use id="arrowdown" xlink:href="#arrowDown" x="0" y="0" onmousedown="handlePan(0,1)"/>
  <use id="arrowleft" xlink:href="#arrowLeft" x="0" y="0" onmousedown="handlePan(-1,0)"/>
</g>
<svg viewBox="0 0 15 15" width="100%" height="30px" preserveAspectRatio="xMaxYMin meet">
 <g id="arrow_out" transform="scale(0.3 0.3)">
  <a xlink:href="classnp_1_1ndarray_1_1array__dynamic_1_1NDArrayDynamic__coll__graph_org.svg" target="_base">
   <rect id="button" ry="5" rx="5" y="6" x="6" height="38" width="38"
        fill="#f2f5e9" fill-opacity="0.5" stroke="#606060" stroke-width="1.0"/>
   <path id="arrow"
     d="M 11.500037,31.436501 C 11.940474,20.09759 22.043105,11.32322 32.158766,21.979434 L 37.068811,17.246167 C 37.068811,17.246167 37.088388,32 37.088388,32 L 22.160133,31.978069 C 22.160133,31.978069 26.997745,27.140456 26.997745,27.140456 C 18.528582,18.264221 13.291696,25.230495 11.500037,31.436501 z"
     style="fill:#404040;"/>
  </a>
 </g>
</svg>

<style type='text/css'>
<![CDATA[
[data-mouse-over-selected='false'] { opacity: 0.7; }
[data-mouse-over-selected='true']  { opacity: 1.0; }
]]>
</style>
<script type="application/ecmascript"><![CDATA[
document.addEventListener('DOMContentLoaded', (event) => {
  highlightEdges();
  highlightAdjacentNodes();
});
]]></script>
</svg>
