<?xml version="1.0" encoding="UTF-8" standalone="no"?>
<!DOCTYPE svg PUBLIC "-//W3C//DTD SVG 1.1//EN"
 "http://www.w3.org/Graphics/SVG/1.1/DTD/svg11.dtd">
<!-- Generated by graphviz version 2.43.0 (0)
 -->
<!-- Title: np::ndarray::array_diagonal::NDArrayIdentity&lt; DType &gt; Pages: 1 -->
<svg width="154pt" height="807pt"
 viewBox="0.00 0.00 154.00 807.00" xmlns="http://www.w3.org/2000/svg" xmlns:xlink="http://www.w3.org/1999/xlink">
<g id="graph0" class="graph" transform="scale(1 1) rotate(0) translate(4 803)">
<title>np::ndarray::array_diagonal::NDArrayIdentity&lt; DType &gt;</title>
<!-- Node1 -->
<g id="Node000001" class="node">
<title>Node1</title>
<g id="a_Node000001"><a xlink:title=" ">
<polygon fill="#999999" stroke="transparent" points="144.5,-161 1.5,-161 1.5,0 144.5,0 144.5,-161"/>
<text text-anchor="start" x="7" y="-148.5" font-family="Helvetica,sans-Serif" font-size="10.00">np::ndarray::array</text>
<text text-anchor="start" x="7" y="-137.5" font-family="Helvetica,sans-Serif" font-size="10.00">_diagonal::NDArrayIdentity</text>
<text text-anchor="start" x="47" y="-126.5" font-family="Helvetica,sans-Serif" font-size="10.00">&lt; DType &gt;</text>
<text text-anchor="start" x="71.5" y="-111.5" font-family="Helvetica,sans-Serif" font-size="10.00"> </text>
<text text-anchor="start" x="12.5" y="-96.5" font-family="Helvetica,sans-Serif" font-size="10.00">+</text>
<text text-anchor="start" x="32" y="-96.5" font-family="Helvetica,sans-Serif" font-size="10.00">NDArrayIdentity()</text>
<text text-anchor="start" x="12.5" y="-81.5" font-family="Helvetica,sans-Serif" font-size="10.00">+</text>
<text text-anchor="start" x="32" y="-81.5" font-family="Helvetica,sans-Serif" font-size="10.00">NDArrayIdentity()</text>
<text text-anchor="start" x="12.5" y="-66.5" font-family="Helvetica,sans-Serif" font-size="10.00">+</text>
<text text-anchor="start" x="32" y="-66.5" font-family="Helvetica,sans-Serif" font-size="10.00">NDArrayIdentity()</text>
<text text-anchor="start" x="12.5" y="-51.5" font-family="Helvetica,sans-Serif" font-size="10.00">+</text>
<text text-anchor="start" x="32" y="-51.5" font-family="Helvetica,sans-Serif" font-size="10.00">NDArrayIdentity()</text>
<text text-anchor="start" x="12.5" y="-36.5" font-family="Helvetica,sans-Serif" font-size="10.00">+</text>
<text text-anchor="start" x="32" y="-36.5" font-family="Helvetica,sans-Serif" font-size="10.00">~NDArrayIdentity()</text>
<text text-anchor="start" x="12.5" y="-21.5" font-family="Helvetica,sans-Serif" font-size="10.00">+</text>
<text text-anchor="start" x="32" y="-21.5" font-family="Helvetica,sans-Serif" font-size="10.00">operator=()</text>
<text text-anchor="start" x="12.5" y="-6.5" font-family="Helvetica,sans-Serif" font-size="10.00">+</text>
<text text-anchor="start" x="32" y="-6.5" font-family="Helvetica,sans-Serif" font-size="10.00">operator=()</text>
<polygon fill="#666666" stroke="#666666" points="2,-121.5 2,-121.5 145,-121.5 145,-121.5 2,-121.5"/>
<polygon fill="#666666" stroke="#666666" points="2,-106.5 2,-106.5 145,-106.5 145,-106.5 2,-106.5"/>
<polygon fill="none" stroke="#666666" points="1.5,0 1.5,-161 144.5,-161 144.5,0 1.5,0"/>
</a>
</g>
</g>
<!-- Node2 -->
<g id="Node000002" class="node">
<title>Node2</title>
<g id="a_Node000002"><a xlink:href="classnp_1_1ndarray_1_1internal_1_1NDArrayShaped.html" target="_top" xlink:title=" ">
<polygon fill="white" stroke="transparent" points="129.5,-407 16.5,-407 16.5,-197 129.5,-197 129.5,-407"/>
<text text-anchor="start" x="22" y="-395" font-family="Helvetica,sans-Serif" font-size="10.00">NDArrayIdentityBase</text>
<text text-anchor="start" x="47" y="-384" font-family="Helvetica,sans-Serif" font-size="10.00">&lt; DType &gt;</text>
<text text-anchor="start" x="22.5" y="-369" font-family="Helvetica,sans-Serif" font-size="10.00">#</text>
<text text-anchor="start" x="37" y="-369" font-family="Helvetica,sans-Serif" font-size="10.00">m_shape</text>
<text text-anchor="start" x="22.5" y="-354" font-family="Helvetica,sans-Serif" font-size="10.00">+</text>
<text text-anchor="start" x="37" y="-354" font-family="Helvetica,sans-Serif" font-size="10.00">NDArrayShaped()</text>
<text text-anchor="start" x="22.5" y="-339" font-family="Helvetica,sans-Serif" font-size="10.00">+</text>
<text text-anchor="start" x="37" y="-339" font-family="Helvetica,sans-Serif" font-size="10.00">NDArrayShaped()</text>
<text text-anchor="start" x="22.5" y="-324" font-family="Helvetica,sans-Serif" font-size="10.00">+</text>
<text text-anchor="start" x="37" y="-324" font-family="Helvetica,sans-Serif" font-size="10.00">NDArrayShaped()</text>
<text text-anchor="start" x="22.5" y="-309" font-family="Helvetica,sans-Serif" font-size="10.00">+</text>
<text text-anchor="start" x="37" y="-309" font-family="Helvetica,sans-Serif" font-size="10.00">NDArrayShaped()</text>
<text text-anchor="start" x="22.5" y="-294" font-family="Helvetica,sans-Serif" font-size="10.00">+</text>
<text text-anchor="start" x="37" y="-294" font-family="Helvetica,sans-Serif" font-size="10.00">NDArrayShaped()</text>
<text text-anchor="start" x="22.5" y="-279" font-family="Helvetica,sans-Serif" font-size="10.00">+</text>
<text text-anchor="start" x="37" y="-279" font-family="Helvetica,sans-Serif" font-size="10.00">NDArrayShaped()</text>
<text text-anchor="start" x="22.5" y="-264" font-family="Helvetica,sans-Serif" font-size="10.00">+</text>
<text text-anchor="start" x="37" y="-264" font-family="Helvetica,sans-Serif" font-size="10.00">NDArrayShaped()</text>
<text text-anchor="start" x="22.5" y="-249" font-family="Helvetica,sans-Serif" font-size="10.00">+</text>
<text text-anchor="start" x="37" y="-249" font-family="Helvetica,sans-Serif" font-size="10.00">operator=()</text>
<text text-anchor="start" x="22.5" y="-234" font-family="Helvetica,sans-Serif" font-size="10.00">+</text>
<text text-anchor="start" x="37" y="-234" font-family="Helvetica,sans-Serif" font-size="10.00">operator=()</text>
<text text-anchor="start" x="22.5" y="-219" font-family="Helvetica,sans-Serif" font-size="10.00">+</text>
<text text-anchor="start" x="37" y="-219" font-family="Helvetica,sans-Serif" font-size="10.00">shape()</text>
<text text-anchor="start" x="37" y="-204" font-family="Helvetica,sans-Serif" font-size="10.00">and 6 more...</text>
<polygon fill="#bfbfbf" stroke="#bfbfbf" points="17,-379 17,-379 130,-379 130,-379 17,-379"/>
<polygon fill="#bfbfbf" stroke="#bfbfbf" points="17,-364 17,-364 35,-364 35,-364 17,-364"/>
<polygon fill="#bfbfbf" stroke="#bfbfbf" points="35,-364 35,-364 130,-364 130,-364 35,-364"/>
<polygon fill="none" stroke="#bfbfbf" points="16.5,-197 16.5,-407 129.5,-407 129.5,-197 16.5,-197"/>
</a>
</g>
</g>
<!-- Node2&#45;&gt;Node1 -->
<g id="edge1_Node000001_Node000002" class="edge">
<title>Node2&#45;&gt;Node1</title>
<g id="a_edge1_Node000001_Node000002"><a xlink:title=" ">
<path fill="none" stroke="#63b8ff" d="M73,-186.63C73,-178.04 73,-169.49 73,-161.18"/>
<polygon fill="none" stroke="#63b8ff" points="69.5,-186.71 73,-196.71 76.5,-186.71 69.5,-186.71"/>
</a>
</g>
</g>
<!-- Node3 -->
<g id="Node000003" class="node">
<title>Node3</title>
<g id="a_Node000003"><a xlink:href="classnp_1_1ndarray_1_1internal_1_1NDArrayBase.html" target="_top" xlink:title=" ">
<polygon fill="white" stroke="transparent" points="146,-799 0,-799 0,-443 146,-443 146,-799"/>
<text text-anchor="start" x="15" y="-787" font-family="Helvetica,sans-Serif" font-size="10.00">np::ndarray::internal</text>
<text text-anchor="start" x="15" y="-776" font-family="Helvetica,sans-Serif" font-size="10.00">::NDArrayBase&lt; DType,</text>
<text text-anchor="start" x="24.5" y="-765" font-family="Helvetica,sans-Serif" font-size="10.00"> Derived, Storage &gt;</text>
<text text-anchor="start" x="71" y="-750" font-family="Helvetica,sans-Serif" font-size="10.00"> </text>
<text text-anchor="start" x="4" y="-735" font-family="Helvetica,sans-Serif" font-size="10.00">+</text>
<text text-anchor="start" x="17" y="-735" font-family="Helvetica,sans-Serif" font-size="10.00">NDArrayBase()</text>
<text text-anchor="start" x="4" y="-720" font-family="Helvetica,sans-Serif" font-size="10.00">+</text>
<text text-anchor="start" x="17" y="-720" font-family="Helvetica,sans-Serif" font-size="10.00">NDArrayBase()</text>
<text text-anchor="start" x="4" y="-705" font-family="Helvetica,sans-Serif" font-size="10.00">+</text>
<text text-anchor="start" x="17" y="-705" font-family="Helvetica,sans-Serif" font-size="10.00">NDArrayBase()</text>
<text text-anchor="start" x="4" y="-690" font-family="Helvetica,sans-Serif" font-size="10.00">+</text>
<text text-anchor="start" x="17" y="-690" font-family="Helvetica,sans-Serif" font-size="10.00">~NDArrayBase()</text>
<text text-anchor="start" x="4" y="-675" font-family="Helvetica,sans-Serif" font-size="10.00">+</text>
<text text-anchor="start" x="17" y="-675" font-family="Helvetica,sans-Serif" font-size="10.00">derived()</text>
<text text-anchor="start" x="4" y="-660" font-family="Helvetica,sans-Serif" font-size="10.00">+</text>
<text text-anchor="start" x="17" y="-660" font-family="Helvetica,sans-Serif" font-size="10.00">derived()</text>
<text text-anchor="start" x="4" y="-645" font-family="Helvetica,sans-Serif" font-size="10.00">+</text>
<text text-anchor="start" x="17" y="-645" font-family="Helvetica,sans-Serif" font-size="10.00">operator=()</text>
<text text-anchor="start" x="4" y="-630" font-family="Helvetica,sans-Serif" font-size="10.00">+</text>
<text text-anchor="start" x="17" y="-630" font-family="Helvetica,sans-Serif" font-size="10.00">operator=()</text>
<text text-anchor="start" x="4" y="-615" font-family="Helvetica,sans-Serif" font-size="10.00">+</text>
<text text-anchor="start" x="17" y="-615" font-family="Helvetica,sans-Serif" font-size="10.00">save()</text>
<text text-anchor="start" x="4" y="-600" font-family="Helvetica,sans-Serif" font-size="10.00">+</text>
<text text-anchor="start" x="17" y="-600" font-family="Helvetica,sans-Serif" font-size="10.00">savez()</text>
<text text-anchor="start" x="17" y="-585" font-family="Helvetica,sans-Serif" font-size="10.00">and 98 more...</text>
<text text-anchor="start" x="4" y="-570" font-family="Helvetica,sans-Serif" font-size="10.00">#</text>
<text text-anchor="start" x="17" y="-570" font-family="Helvetica,sans-Serif" font-size="10.00">getMaxElementSize()</text>
<text text-anchor="start" x="4" y="-555" font-family="Helvetica,sans-Serif" font-size="10.00">#</text>
<text text-anchor="start" x="17" y="-555" font-family="Helvetica,sans-Serif" font-size="10.00">dumpToStreamAsBinary()</text>
<text text-anchor="start" x="4" y="-540" font-family="Helvetica,sans-Serif" font-size="10.00">#</text>
<text text-anchor="start" x="17" y="-540" font-family="Helvetica,sans-Serif" font-size="10.00">runHandlers()</text>
<text text-anchor="start" x="4" y="-525" font-family="Helvetica,sans-Serif" font-size="10.00">#</text>
<text text-anchor="start" x="17" y="-525" font-family="Helvetica,sans-Serif" font-size="10.00">none()</text>
<text text-anchor="start" x="4" y="-510" font-family="Helvetica,sans-Serif" font-size="10.00">#</text>
<text text-anchor="start" x="17" y="-510" font-family="Helvetica,sans-Serif" font-size="10.00">subsetting()</text>
<text text-anchor="start" x="4" y="-495" font-family="Helvetica,sans-Serif" font-size="10.00">#</text>
<text text-anchor="start" x="17" y="-495" font-family="Helvetica,sans-Serif" font-size="10.00">slicing()</text>
<text text-anchor="start" x="4" y="-480" font-family="Helvetica,sans-Serif" font-size="10.00">#</text>
<text text-anchor="start" x="17" y="-480" font-family="Helvetica,sans-Serif" font-size="10.00">booleanIndexing()</text>
<text text-anchor="start" x="4" y="-465" font-family="Helvetica,sans-Serif" font-size="10.00">#</text>
<text text-anchor="start" x="17" y="-465" font-family="Helvetica,sans-Serif" font-size="10.00">save()</text>
<text text-anchor="start" x="4" y="-450" font-family="Helvetica,sans-Serif" font-size="10.00">#</text>
<text text-anchor="start" x="17" y="-450" font-family="Helvetica,sans-Serif" font-size="10.00">load()</text>
<polygon fill="#bfbfbf" stroke="#bfbfbf" points="0,-760 0,-760 146,-760 146,-760 0,-760"/>
<polygon fill="#bfbfbf" stroke="#bfbfbf" points="0,-745 0,-745 146,-745 146,-745 0,-745"/>
<polygon fill="none" stroke="#bfbfbf" points="0,-443 0,-799 146,-799 146,-443 0,-443"/>
</a>
</g>
</g>
<!-- Node3&#45;&gt;Node2 -->
<g id="edge2_Node000002_Node000003" class="edge">
<title>Node3&#45;&gt;Node2</title>
<g id="a_edge2_Node000002_Node000003"><a xlink:title=" ">
<path fill="none" stroke="#63b8ff" d="M73,-432.71C73,-424.02 73,-415.45 73,-407.11"/>
<polygon fill="none" stroke="#63b8ff" points="69.5,-432.96 73,-442.96 76.5,-432.96 69.5,-432.96"/>
</a>
</g>
</g>
</g>
</svg>
