<?xml version="1.0" encoding="UTF-8" standalone="no"?>
<!DOCTYPE svg PUBLIC "-//W3C//DTD SVG 1.1//EN"
 "http://www.w3.org/Graphics/SVG/1.1/DTD/svg11.dtd">
<!-- Generated by graphviz version 2.43.0 (0)
 -->
<!-- Title: compare_python_lstsq.run_numpy_benchmark_traced Pages: 1 -->
<svg width="354pt" height="134pt"
 viewBox="0.00 0.00 354.00 134.00" xmlns="http://www.w3.org/2000/svg" xmlns:xlink="http://www.w3.org/1999/xlink">
<g id="graph0" class="graph" transform="scale(1 1) rotate(0) translate(4 130)">
<title>compare_python_lstsq.run_numpy_benchmark_traced</title>
<!-- Node1 -->
<g id="Node000001" class="node">
<title>Node1</title>
<g id="a_Node000001"><a xlink:title=" ">
<polygon fill="#999999" stroke="#666666" points="152,-78 0,-78 0,-48 152,-48 152,-78"/>
<text text-anchor="start" x="8" y="-66" font-family="Helvetica,sans-Serif" font-size="10.00">compare_python_lstsq.run</text>
<text text-anchor="middle" x="76" y="-55" font-family="Helvetica,sans-Serif" font-size="10.00">_numpy_benchmark_traced</text>
</a>
</g>
</g>
<!-- Node1&#45;&gt;Node1 -->
<g id="edge4_Node000001_Node000001" class="edge">
<title>Node1&#45;&gt;Node1</title>
<g id="a_edge4_Node000001_Node000001"><a xlink:title=" ">
<path fill="none" stroke="#63b8ff" d="M42.6,-78.28C35.18,-87.41 46.31,-96 76,-96 93.63,-96 104.71,-92.97 109.26,-88.6"/>
<polygon fill="#63b8ff" stroke="#63b8ff" points="112.76,-88.32 109.4,-78.28 105.76,-88.23 112.76,-88.32"/>
</a>
</g>
</g>
<!-- Node2 -->
<g id="Node000002" class="node">
<title>Node2</title>
<g id="a_Node000002"><a xlink:href="namespacecompare__python__lstsq.html#a66e524ffa13eea34b08e06380cfb617a" target="_top" xlink:title=" ">
<polygon fill="white" stroke="#666666" points="337.5,-126 196.5,-126 196.5,-96 337.5,-96 337.5,-126"/>
<text text-anchor="start" x="204.5" y="-114" font-family="Helvetica,sans-Serif" font-size="10.00">compare_python_lstsq.</text>
<text text-anchor="middle" x="267" y="-103" font-family="Helvetica,sans-Serif" font-size="10.00">_estimate_cpp_peak_mib</text>
</a>
</g>
</g>
<!-- Node1&#45;&gt;Node2 -->
<g id="edge1_Node000001_Node000002" class="edge">
<title>Node1&#45;&gt;Node2</title>
<g id="a_edge1_Node000001_Node000002"><a xlink:title=" ">
<path fill="none" stroke="#63b8ff" d="M136.28,-78.06C155.55,-82.95 177.09,-88.42 197,-93.48"/>
<polygon fill="#63b8ff" stroke="#63b8ff" points="196.37,-96.93 206.93,-96 198.1,-90.14 196.37,-96.93"/>
</a>
</g>
</g>
<!-- Node3 -->
<g id="Node000003" class="node">
<title>Node3</title>
<g id="a_Node000003"><a xlink:href="namespacecompare__python__lstsq.html#ae3a800e6b5cce08c26b369642fbb9ca8" target="_top" xlink:title=" ">
<polygon fill="white" stroke="#666666" points="346,-78 188,-78 188,-48 346,-48 346,-78"/>
<text text-anchor="start" x="196" y="-66" font-family="Helvetica,sans-Serif" font-size="10.00">compare_python_lstsq.</text>
<text text-anchor="middle" x="267" y="-55" font-family="Helvetica,sans-Serif" font-size="10.00">_estimate_python_peak_mib</text>
</a>
</g>
</g>
<!-- Node1&#45;&gt;Node3 -->
<g id="edge2_Node000001_Node000003" class="edge">
<title>Node1&#45;&gt;Node3</title>
<g id="a_edge2_Node000001_Node000003"><a xlink:title=" ">
<path fill="none" stroke="#63b8ff" d="M152.24,-63C160.68,-63 169.32,-63 177.9,-63"/>
<polygon fill="#63b8ff" stroke="#63b8ff" points="177.92,-66.5 187.92,-63 177.92,-59.5 177.92,-66.5"/>
</a>
</g>
</g>
<!-- Node4 -->
<g id="Node000004" class="node">
<title>Node4</title>
<g id="a_Node000004"><a xlink:href="namespacecompare__python__lstsq.html#a5b4664b979703cf67253943431bd1d9a" target="_top" xlink:title=" ">
<polygon fill="white" stroke="#666666" points="340,-30 194,-30 194,0 340,0 340,-30"/>
<text text-anchor="start" x="202" y="-18" font-family="Helvetica,sans-Serif" font-size="10.00">compare_python_lstsq.run</text>
<text text-anchor="middle" x="267" y="-7" font-family="Helvetica,sans-Serif" font-size="10.00">_cpp_benchmark</text>
</a>
</g>
</g>
<!-- Node1&#45;&gt;Node4 -->
<g id="edge3_Node000001_Node000004" class="edge">
<title>Node1&#45;&gt;Node4</title>
<g id="a_edge3_Node000001_Node000004"><a xlink:title=" ">
<path fill="none" stroke="#63b8ff" d="M136.28,-47.94C155.55,-43.05 177.09,-37.58 197,-32.52"/>
<polygon fill="#63b8ff" stroke="#63b8ff" points="198.1,-35.86 206.93,-30 196.37,-29.07 198.1,-35.86"/>
</a>
</g>
</g>
</g>
</svg>
